<?xml version="1.0" standalone="no"?>
<!DOCTYPE svg PUBLIC "-//W3C//DTD SVG 20010904//EN"
 "http://www.w3.org/TR/2001/REC-SVG-20010904/DTD/svg10.dtd">
<svg version="1.0" xmlns="http://www.w3.org/2000/svg"
 width="426.000000pt" height="426.000000pt" viewBox="0 0 426.000000 426.000000"
 preserveAspectRatio="xMidYMid meet">
<metadata>
Created by potrace 1.11, written by Peter Selinger 2001-2013
</metadata>
<g transform="translate(0.000000,426.000000) scale(0.100000,-0.100000)"
fill="#000000" stroke="none">
<path d="M2077 2811 c-65 -101 -97 -222 -91 -344 2 -34 21 -125 42 -202 53
-187 52 -183 53 -267 2 -106 -13 -150 -71 -207 -73 -72 -107 -85 -217 -84
-119 1 -182 28 -230 100 -40 60 -51 99 -52 191 -1 43 -4 52 -18 52 -24 -1 -44
-31 -77 -114 -45 -111 -58 -196 -53 -326 3 -90 10 -133 31 -195 80 -238 265
-424 501 -502 72 -24 95 -27 230 -27 168 -1 200 6 341 75 262 129 425 391 425
684 1 157 -34 282 -111 396 -116 171 -638 829 -658 829 -4 0 -24 -27 -45 -59z"/>
</g>
</svg>
