<?xml version="1.0" standalone="no"?>
<!DOCTYPE svg PUBLIC "-//W3C//DTD SVG 20010904//EN"
 "http://www.w3.org/TR/2001/REC-SVG-20010904/DTD/svg10.dtd">
<svg version="1.0" xmlns="http://www.w3.org/2000/svg"
 width="167.000000pt" height="167.000000pt" viewBox="0 0 167.000000 167.000000"
 preserveAspectRatio="xMidYMid meet">
<metadata>
Created by potrace 1.11, written by Peter Selinger 2001-2013
</metadata>
<g transform="translate(0.000000,167.000000) scale(0.100000,-0.100000)"
fill="#000000" stroke="none">
<path d="M818 1649 c-127 -18 -318 -97 -407 -168 -165 -131 -262 -278 -318
-481 -24 -87 -14 -354 16 -440 23 -64 78 -186 103 -225 95 -149 262 -315 316
-315 23 0 28 10 13 25 -4 6 -13 24 -19 40 -6 17 -19 53 -29 80 -11 28 -20 84
-22 127 -2 65 1 85 20 123 26 52 84 98 169 134 133 57 160 73 165 94 10 47 9
59 -10 137 0 3 -7 22 -14 42 -7 21 -10 42 -7 47 9 14 53 -1 138 -46 87 -46
145 -102 180 -174 48 -100 57 -147 53 -291 -2 -73 -5 -144 -8 -158 -16 -91
-29 -192 -24 -197 31 -31 277 245 332 372 9 22 21 49 26 60 21 49 30 173 16
246 -20 109 -92 228 -219 364 -201 215 -257 321 -256 488 0 48 4 90 10 93 5 3
4 11 -3 20 -13 16 -124 17 -221 3z"/>
</g>
</svg>
